<?xml version="1.0" encoding="UTF-8" standalone="no"?>
<svg
   xmlns:dc="http://purl.org/dc/elements/1.1/"
   xmlns:cc="http://creativecommons.org/ns#"
   xmlns:rdf="http://www.w3.org/1999/02/22-rdf-syntax-ns#"
   xmlns:svg="http://www.w3.org/2000/svg"
   xmlns="http://www.w3.org/2000/svg"
   id="svg32"
   version="1.1"
   style="overflow:visible"
   viewBox="-240 -126 480 252"
   height="1008px"
   width="1920px">
  <metadata
     id="metadata38">
    <rdf:RDF>
      <cc:Work
         rdf:about="">
        <dc:format>image/svg+xml</dc:format>
        <dc:type
           rdf:resource="http://purl.org/dc/dcmitype/StillImage" />
      </cc:Work>
    </rdf:RDF>
  </metadata>
  <defs
     id="defs36" />
  <rect
     id="rect2"
     fill-opacity="0"
     fill="rgb(0,0,0)"
     height="252"
     width="480"
     y="-126"
     x="-240" />
  <svg
     id="svg30"
     version="1.1"
     y="-250"
     x="-250"
     viewBox="-250 -250 500 500"
     height="500"
     width="500"
     style="overflow:visible">
    <g
       style="fill:#ffffff;stroke-linejoin:round"
       id="g28">
      <path
         style="fill:#dddddd;fill-opacity:1;stroke:none;stroke-linecap:butt;stroke-linejoin:round"
         id="path4"
         d="M 120.612,-0.058401 28.4976,105.5264 C 83.03368,98.013798 135.972,67.705919 152.444,-0.058401 Z" />
      <path
         style="fill:#ffffff;fill-opacity:1;stroke:none;stroke-linecap:butt;stroke-linejoin:round"
         id="path6"
         d="m -152.44624,-0.0608 c 19.34424,79.5868 88.9872,107.5304 152.4464,107.5304 9.4252,0 18.98448,-0.63242 28.49744,-1.94286 7.2e-4,-2.5e-4 0.0016,2.4e-4 0.0024,0 41.942,-14.726725 78.53592,-47.230566 92.112,-105.584805 z" />
      <path
         style="fill:none;stroke:#444444;stroke-width:8;stroke-linecap:butt;stroke-linejoin:round;stroke-opacity:1"
         id="path8"
         d="m -152.44552,-0.06 c 19.34424,79.5868 88.985599,107.5296 152.443999,107.5296 63.45848,0 133.099201,-27.94192 152.444801,-107.5272 z" />
      <path
         style="fill:#d6e2ff;fill-opacity:1;stroke:#444444;stroke-width:8;stroke-linecap:butt;stroke-linejoin:round;stroke-opacity:1"
         id="path10"
         d="m -157.6,-40.236001 c 0.40482,14.65896 2.19844,28.014319 5.15445,40.17608 h 0.0438 a 154.8536,66.06 0 0 0 152.400797,54.45632 154.8536,66.06 0 0 0 152.305603,-54.454 h 0.13856 c 2.95634,-12.162321 4.74962,-25.51856 5.15444,-40.1784 h -315.1976 z" />
      <path
         style="fill:#e7eeff;fill-opacity:1;stroke:#444444;stroke-width:8;stroke-linecap:butt;stroke-linejoin:round;stroke-opacity:1"
         id="path12"
         d="m -8.01e-4,-107.4688 c -87.0408,3.1e-4 -157.599999,30.101519 -157.599199,67.232719 0.0325,5.76112 1.80038,11.49656 5.26068,17.06544 l 304.6928,-0.192329 c 3.4175,-5.506817 5.18058,-11.17664 5.24681,-16.87304 8e-4,-37.1316 -70.559595,-67.23296 -157.600796,-67.23272 z" />
      <path
         style="fill:#ffffff;fill-opacity:1;stroke:none;stroke-linecap:butt;stroke-linejoin:round"
         id="path14"
         d="M -8.01e-4,-77.724801 A 154.8536,66.06 0 0 0 -152.3392,-23.171202 157.6,67.23168 0 0 0 -8.01e-4,26.993838 157.6,67.23168 0 0 0 152.3536,-23.363522 154.8536,66.06 0 0 0 -8.02e-4,-77.724802 Z" />
      <path
         style="fill:#e7eeff;fill-opacity:1;stroke:none;stroke-linecap:butt;stroke-linejoin:round"
         id="path16"
         d="m 53.2032,-62.2952 c 2.057168,-1.865768 23.09856,1.36156 41.84496,8.09208 18.36816,6.594736 34.5428,16.62112 27.5608,21.9368 -6.51396,4.959248 -16.66456,-7.605584 -33.67352,-14.65248 -24.394001,-10.106481 -42.226961,-9.486 -35.732241,-15.37648 z" />
      <path
         style="fill:#e7eeff;fill-opacity:1;stroke:none;stroke-linecap:butt;stroke-linejoin:round"
         id="path18"
         d="m -136.25632,-26.5808 c 0.13927,-2.778824 17.29,-15.42824 35.28752,-23.9724 17.634399,-8.37176 36.136879,-12.76088 34.947519,-4.048305 -1.10964,8.1284 -17.142481,6.448208 -34.134559,13.53584 -24.36984,10.16496 -36.54008,23.258 -36.1004,14.48488 z" />
      <path
         style="fill:#e7eeff;fill-opacity:1;stroke:none;stroke-linecap:butt;stroke-linejoin:round"
         id="path20"
         d="m -26.096801,-34.040801 c 0,0 -19.0468,0.496672 -18.084961,10.34032 0.961832,9.84368 18.1364,16.07904 29.81936,11.74792 16.92832,7.91352 42.64552,5.092864 49.49472,0.247104 15.00464,-10.615681 -10.636561,-15.96592 -10.636561,-15.96592 z" />
      <path
         style="fill:#ff8a97;fill-opacity:1;stroke:#444444;stroke-width:8;stroke-linecap:butt;stroke-linejoin:round;stroke-opacity:1"
         id="path22"
         d="m 32.7728,-28.058401 c 0,5.669616 -18.40024,10.26576 -28.08528,10.26576 -9.685121,0 -17.5364,-4.596152 -17.5364,-10.26576 0,-5.669625 7.851296,-10.26576 17.5364,-10.26576 9.68504,0 28.08528,4.596128 28.08528,10.26576 z" />
      <path
         style="fill:#ff8a97;fill-opacity:1;stroke:#444444;stroke-width:8;stroke-linecap:butt;stroke-linejoin:round;stroke-opacity:1"
         id="path24"
         d="m 9.823199,-43.6512 c 2.163472,5.233336 -13.06704,16.61096 -22.006961,20.36656 -8.93984,3.755616 -17.940881,2.557656 -20.1044,-2.675704 -2.163456,-5.233368 3.32984,-12.5204 12.26976,-16.276 8.93984,-3.755616 27.67808,-6.64824 29.8416,-1.414856 z" />
      <path
         style="fill:none;stroke:#444444;stroke-width:8;stroke-linecap:butt;stroke-linejoin:round;stroke-opacity:1"
         id="path26"
         d="M -8.01e-4,-77.724801 A 154.8536,66.06 0 0 0 -152.3392,-23.171202 157.6,67.23168 0 0 0 -8.01e-4,26.993838 157.6,67.23168 0 0 0 152.3536,-23.363522 154.8536,66.06 0 0 0 -8.02e-4,-77.724802 Z" />
    </g>
  </svg>
</svg>
